<svg width="57" height="58" viewBox="0 0 57 58" fill="none" xmlns="http://www.w3.org/2000/svg">
<path d="M28.1882 57.1884C43.7561 57.1884 56.3763 44.5681 56.3763 29.0002C56.3763 13.4323 43.7561 0.812012 28.1882 0.812012C12.6203 0.812012 0 13.4323 0 29.0002C0 44.5681 12.6203 57.1884 28.1882 57.1884Z" fill="black"/>
<path d="M40.989 20.6597C40.56 20.4604 40.0615 20.5214 39.6866 20.8184L35.8249 23.8846C35.432 22.0118 33.731 20.5973 31.6981 20.5973H18.3053C15.9822 20.5973 14.0938 22.443 14.0938 24.7105V33.2907C14.0938 35.5595 15.9836 37.4038 18.3053 37.4038H31.6981C33.731 37.4038 35.432 35.9908 35.8249 34.1166L39.6866 37.1814C39.9157 37.3632 40.1906 37.4567 40.4669 37.4567C40.6433 37.4567 40.821 37.4188 40.989 37.3415C41.4625 37.1218 41.7694 36.6214 41.7694 36.0667V21.9318C41.7694 21.3785 41.4625 20.878 40.989 20.657V20.6597ZM34.3864 33.2921C34.3864 34.739 33.1811 35.9175 31.6981 35.9175H18.3053C16.8237 35.9175 15.617 34.7404 15.617 33.2921V24.7118C15.617 23.2648 16.8223 22.0864 18.3053 22.0864H31.6981C33.1797 22.0864 34.3864 23.2635 34.3864 24.7118V33.2921ZM40.2448 35.7087L35.911 32.2682V25.7343L40.2461 22.2938V35.7087H40.2448Z" fill="white"/>
</svg>
