<svg width="57" height="57" viewBox="0 0 57 57" fill="none" xmlns="http://www.w3.org/2000/svg">
<path d="M28.1882 56.3763C43.7561 56.3763 56.3763 43.7561 56.3763 28.1882C56.3763 12.6203 43.7561 0 28.1882 0C12.6203 0 0 12.6203 0 28.1882C0 43.7561 12.6203 56.3763 28.1882 56.3763Z" fill="white"/>
<path d="M40.989 19.8477C40.56 19.6483 40.0615 19.7094 39.6866 20.0064L35.8249 23.0726C35.432 21.1998 33.731 19.7853 31.6981 19.7853H18.3053C15.9822 19.7853 14.0938 21.631 14.0938 23.8985V32.4787C14.0938 34.7475 15.9836 36.5918 18.3053 36.5918H31.6981C33.731 36.5918 35.432 35.1787 35.8249 33.3046L39.6866 36.3694C39.9157 36.5511 40.1906 36.6447 40.4669 36.6447C40.6433 36.6447 40.821 36.6067 40.989 36.5294C41.4625 36.3098 41.7694 35.8093 41.7694 35.2547V21.1197C41.7694 20.5664 41.4625 20.066 40.989 19.845V19.8477ZM34.3864 32.48C34.3864 33.927 33.1811 35.1055 31.6981 35.1055H18.3053C16.8237 35.1055 15.617 33.9284 15.617 32.48V23.8998C15.617 22.4528 16.8223 21.2743 18.3053 21.2743H31.6981C33.1797 21.2743 34.3864 22.4515 34.3864 23.8998V32.48ZM40.2448 34.8967L35.911 31.4562V24.9223L40.2461 21.4818V34.8967H40.2448Z" fill="black"/>
<path d="M42.2842 15.5061L15.5054 42.2849" stroke="black" stroke-width="3" stroke-linecap="round"/>
</svg>
