<svg width="57" height="58" viewBox="0 0 57 58" fill="none" xmlns="http://www.w3.org/2000/svg">
<path d="M28.2081 57.1884C43.787 57.1884 56.4163 44.5681 56.4163 29.0002C56.4163 13.4323 43.787 0.812012 28.2081 0.812012C12.6292 0.812012 0 13.4323 0 29.0002C0 44.5681 12.6292 57.1884 28.2081 57.1884Z" fill="black"/>
<path d="M40.8232 25.2166C37.4798 22.9566 33.436 22.8099 33.2654 22.8049C33.2591 22.8049 33.2516 22.8049 33.2453 22.8049H23.1724C23.1661 22.8049 23.1586 22.8049 23.1523 22.8049C22.9816 22.8099 18.9379 22.9566 15.5945 25.2166C13.358 26.7278 12.0239 29.3264 12.0239 32.1658C12.0239 33.8363 13.3844 35.1958 15.0561 35.1958H17.5549C19.9018 35.1958 21.9952 33.7072 22.7658 31.4923C22.9954 30.8327 23.6154 30.3925 24.3132 30.3925C24.3182 30.3925 24.322 30.3925 24.327 30.3925L27.1534 30.415C27.2036 30.4263 27.255 30.4301 27.3052 30.4313L28.2051 30.4238L29.1162 30.4313C29.1689 30.4313 29.2191 30.4263 29.2681 30.415L32.0944 30.3925C32.0944 30.3925 32.1032 30.3925 32.1082 30.3925C32.806 30.3925 33.4273 30.8327 33.6557 31.4923C34.425 33.7072 36.5197 35.1958 38.8666 35.1958H41.3654C43.0371 35.1958 44.3975 33.8363 44.3975 32.1658C44.3975 29.3264 43.0622 26.7291 40.8269 25.2166H40.8232ZM41.3628 33.8188H38.8641C37.1033 33.8188 35.532 32.7026 34.9546 31.0396C34.533 29.8256 33.3896 29.0141 32.1057 29.0141C32.0969 29.0141 32.0894 29.0141 32.0806 29.0141L29.1137 29.038C29.0685 29.038 29.0246 29.043 28.9832 29.0518L28.2026 29.0455L27.4332 29.0518C27.3906 29.043 27.3466 29.0392 27.3027 29.038L24.3358 29.0141C23.0431 29.0054 21.8872 29.8181 21.4618 31.0396C20.8845 32.7013 19.3132 33.8188 17.5524 33.8188H15.0536C14.1412 33.8188 13.3995 33.0776 13.3995 32.1658C13.3995 29.7842 14.5076 27.612 16.3651 26.3566C19.3031 24.37 22.9879 24.1882 23.1849 24.1807H33.2327C33.436 24.1894 37.1171 24.3726 40.0526 26.3566C41.91 27.612 43.0182 29.7842 43.0182 32.1658C43.0182 33.0776 42.2765 33.8188 41.3641 33.8188H41.3628Z" fill="white"/>
</svg>
