<svg width="143" height="40" viewBox="0 0 143 40" fill="none" xmlns="http://www.w3.org/2000/svg">
<path d="M52.64 20.8C52.64 19.9333 52.7933 19.08 53.1 18.24C53.4067 17.3867 53.8467 16.6267 54.42 15.96C55.0067 15.2933 55.72 14.7533 56.56 14.34C57.4 13.9267 58.36 13.72 59.44 13.72C60.7067 13.72 61.8 14.0067 62.72 14.58C63.6533 15.1533 64.34 15.9 64.78 16.82L62.66 18.28C62.5 17.88 62.2933 17.5467 62.04 17.28C61.7867 17 61.5067 16.78 61.2 16.62C60.9067 16.46 60.6 16.3467 60.28 16.28C59.96 16.2 59.6533 16.16 59.36 16.16C58.7067 16.16 58.1333 16.3 57.64 16.58C57.1467 16.86 56.7333 17.2267 56.4 17.68C56.08 18.12 55.8333 18.6267 55.66 19.2C55.5 19.76 55.42 20.32 55.42 20.88C55.42 21.5067 55.5133 22.1133 55.7 22.7C55.9 23.2733 56.1733 23.78 56.52 24.22C56.88 24.66 57.3067 25.0133 57.8 25.28C58.2933 25.5467 58.8333 25.68 59.42 25.68C59.7267 25.68 60.04 25.64 60.36 25.56C60.68 25.48 60.9867 25.3533 61.28 25.18C61.5867 25.0067 61.8667 24.7867 62.12 24.52C62.3733 24.24 62.58 23.9067 62.74 23.52L65 24.82C64.7867 25.3533 64.4733 25.8267 64.06 26.24C63.66 26.64 63.2 26.98 62.68 27.26C62.16 27.54 61.6133 27.7533 61.04 27.9C60.4667 28.0467 59.9 28.12 59.34 28.12C58.3533 28.12 57.4467 27.9067 56.62 27.48C55.8067 27.0533 55.1 26.5 54.5 25.82C53.9133 25.1267 53.4533 24.3467 53.12 23.48C52.8 22.6 52.64 21.7067 52.64 20.8ZM69.4784 28.2C68.9718 28.2 68.4984 28.12 68.0584 27.96C67.6184 27.7867 67.2384 27.5533 66.9184 27.26C66.5984 26.9533 66.3451 26.6 66.1584 26.2C65.9851 25.8 65.8984 25.36 65.8984 24.88C65.8984 24.3867 66.0051 23.9333 66.2184 23.52C66.4451 23.0933 66.7518 22.7333 67.1384 22.44C67.5384 22.1467 68.0118 21.92 68.5584 21.76C69.1051 21.5867 69.7051 21.5 70.3584 21.5C70.8251 21.5 71.2784 21.54 71.7184 21.62C72.1718 21.7 72.5718 21.8133 72.9184 21.96V21.36C72.9184 20.6667 72.7184 20.1333 72.3184 19.76C71.9318 19.3867 71.3518 19.2 70.5784 19.2C70.0184 19.2 69.4718 19.3 68.9384 19.5C68.4051 19.7 67.8584 19.9933 67.2984 20.38L66.4784 18.68C67.8251 17.7867 69.2784 17.34 70.8384 17.34C72.3451 17.34 73.5118 17.7133 74.3384 18.46C75.1784 19.1933 75.5984 20.26 75.5984 21.66V24.92C75.5984 25.2 75.6518 25.4 75.7584 25.52C75.8651 25.64 76.0518 25.7067 76.3184 25.72V28C76.0651 28.0533 75.8251 28.0867 75.5984 28.1C75.3851 28.1267 75.1984 28.14 75.0384 28.14C74.5318 28.1267 74.1451 28.0133 73.8784 27.8C73.6118 27.5733 73.4451 27.2733 73.3784 26.9L73.3184 26.32C72.8518 26.9333 72.2851 27.4 71.6184 27.72C70.9518 28.04 70.2384 28.2 69.4784 28.2ZM70.2384 26.24C70.6918 26.24 71.1184 26.16 71.5184 26C71.9318 25.84 72.2518 25.6267 72.4784 25.36C72.7718 25.1333 72.9184 24.88 72.9184 24.6V23.4C72.5984 23.28 72.2518 23.1867 71.8784 23.12C71.5051 23.04 71.1451 23 70.7984 23C70.1051 23 69.5384 23.16 69.0984 23.48C68.6584 23.7867 68.4384 24.18 68.4384 24.66C68.4384 25.1133 68.6118 25.4933 68.9584 25.8C69.3051 26.0933 69.7318 26.24 70.2384 26.24ZM78.1409 13.4H80.8209V24.52C80.8209 25.3333 81.1876 25.74 81.9209 25.74C82.0676 25.74 82.2343 25.7133 82.4209 25.66C82.6209 25.6067 82.8076 25.5467 82.9809 25.48L83.3409 27.62C82.9809 27.7933 82.5609 27.9267 82.0809 28.02C81.6009 28.1133 81.1676 28.16 80.7809 28.16C79.9409 28.16 79.2876 27.94 78.8209 27.5C78.3676 27.0467 78.1409 26.4067 78.1409 25.58V13.4ZM84.4886 13.4H87.1686V24.52C87.1686 25.3333 87.5353 25.74 88.2686 25.74C88.4153 25.74 88.5819 25.7133 88.7686 25.66C88.9686 25.6067 89.1553 25.5467 89.3286 25.48L89.6886 27.62C89.3286 27.7933 88.9086 27.9267 88.4286 28.02C87.9486 28.1133 87.5153 28.16 87.1286 28.16C86.2886 28.16 85.6353 27.94 85.1686 27.5C84.7153 27.0467 84.4886 26.4067 84.4886 25.58V13.4ZM98.0331 28.2C97.5265 28.2 97.0531 28.12 96.6131 27.96C96.1731 27.7867 95.7931 27.5533 95.4731 27.26C95.1531 26.9533 94.8998 26.6 94.7131 26.2C94.5398 25.8 94.4531 25.36 94.4531 24.88C94.4531 24.3867 94.5598 23.9333 94.7731 23.52C94.9998 23.0933 95.3065 22.7333 95.6931 22.44C96.0931 22.1467 96.5665 21.92 97.1131 21.76C97.6598 21.5867 98.2598 21.5 98.9131 21.5C99.3798 21.5 99.8331 21.54 100.273 21.62C100.726 21.7 101.126 21.8133 101.473 21.96V21.36C101.473 20.6667 101.273 20.1333 100.873 19.76C100.486 19.3867 99.9065 19.2 99.1331 19.2C98.5731 19.2 98.0265 19.3 97.4931 19.5C96.9598 19.7 96.4131 19.9933 95.8531 20.38L95.0331 18.68C96.3798 17.7867 97.8331 17.34 99.3931 17.34C100.9 17.34 102.066 17.7133 102.893 18.46C103.733 19.1933 104.153 20.26 104.153 21.66V24.92C104.153 25.2 104.206 25.4 104.313 25.52C104.42 25.64 104.606 25.7067 104.873 25.72V28C104.62 28.0533 104.38 28.0867 104.153 28.1C103.94 28.1267 103.753 28.14 103.593 28.14C103.086 28.1267 102.7 28.0133 102.433 27.8C102.166 27.5733 102 27.2733 101.933 26.9L101.873 26.32C101.406 26.9333 100.84 27.4 100.173 27.72C99.5065 28.04 98.7931 28.2 98.0331 28.2ZM98.7931 26.24C99.2465 26.24 99.6731 26.16 100.073 26C100.486 25.84 100.806 25.6267 101.033 25.36C101.326 25.1333 101.473 24.88 101.473 24.6V23.4C101.153 23.28 100.806 23.1867 100.433 23.12C100.06 23.04 99.6998 23 99.3531 23C98.6598 23 98.0931 23.16 97.6531 23.48C97.2131 23.7867 96.9931 24.18 96.9931 24.66C96.9931 25.1133 97.1665 25.4933 97.5131 25.8C97.8598 26.0933 98.2865 26.24 98.7931 26.24ZM112.498 13.8L116.338 24.54L120.138 13.8H123.038L117.498 28H115.178L109.598 13.8H112.498ZM129.135 28.2C128.295 28.2 127.535 28.06 126.855 27.78C126.175 27.4867 125.595 27.0933 125.115 26.6C124.635 26.1067 124.261 25.5333 123.995 24.88C123.741 24.2267 123.615 23.54 123.615 22.82C123.615 22.0733 123.741 21.3733 123.995 20.72C124.248 20.0533 124.615 19.4733 125.095 18.98C125.575 18.4733 126.155 18.0733 126.835 17.78C127.528 17.4867 128.301 17.34 129.155 17.34C130.008 17.34 130.768 17.4867 131.435 17.78C132.115 18.0733 132.688 18.4667 133.155 18.96C133.635 19.4533 133.995 20.0267 134.235 20.68C134.488 21.3333 134.615 22.0133 134.615 22.72C134.615 22.8933 134.608 23.06 134.595 23.22C134.595 23.38 134.581 23.5133 134.555 23.62H126.455C126.495 24.0333 126.595 24.4 126.755 24.72C126.915 25.04 127.121 25.3133 127.375 25.54C127.628 25.7667 127.915 25.94 128.235 26.06C128.555 26.18 128.888 26.24 129.235 26.24C129.768 26.24 130.268 26.1133 130.735 25.86C131.215 25.5933 131.541 25.2467 131.715 24.82L134.015 25.46C133.628 26.26 133.008 26.92 132.155 27.44C131.315 27.9467 130.308 28.2 129.135 28.2ZM131.855 21.88C131.788 21.0933 131.495 20.4667 130.975 20C130.468 19.52 129.848 19.28 129.115 19.28C128.755 19.28 128.415 19.3467 128.095 19.48C127.788 19.6 127.515 19.7733 127.275 20C127.035 20.2267 126.835 20.5 126.675 20.82C126.528 21.14 126.441 21.4933 126.415 21.88H131.855ZM142.449 27.46C142.089 27.62 141.643 27.78 141.109 27.94C140.589 28.1 140.043 28.18 139.469 28.18C139.096 28.18 138.743 28.1333 138.409 28.04C138.089 27.9467 137.803 27.8 137.549 27.6C137.309 27.3867 137.116 27.12 136.969 26.8C136.823 26.4667 136.749 26.0667 136.749 25.6V19.58H135.389V17.52H136.749V14.12H139.429V17.52H141.649V19.58H139.429V24.7C139.429 25.0733 139.529 25.34 139.729 25.5C139.929 25.6467 140.169 25.72 140.449 25.72C140.729 25.72 141.003 25.6733 141.269 25.58C141.536 25.4867 141.749 25.4067 141.909 25.34L142.449 27.46Z" fill="white"/>
<path opacity="0.95" d="M15.2639 38.396H6.40791C3.75591 38.396 1.60791 36.248 1.60791 33.596V6.404C1.60791 3.752 3.75591 1.604 6.40791 1.604H15.2639C17.9159 1.604 20.0639 3.752 20.0639 6.404V33.596C20.0639 36.248 17.9159 38.396 15.2639 38.396Z" fill="#F75146"/>
<path opacity="0.85" d="M1.60791 4.68V10.384C1.60791 11.94 3.27991 13.204 5.34391 13.204H15.9599C18.2119 13.204 20.0359 14.58 20.0359 16.28V16.92C20.0359 18.62 21.8599 19.996 24.1119 19.996H35.0719C37.3239 19.996 38.3839 17.468 38.3839 15.768V5.192C38.3839 3.492 36.5599 1.604 34.3079 1.604H5.68791C3.43591 1.604 1.60791 2.98 1.60791 4.68Z" fill="#F75146"/>
<path opacity="0.5" d="M1.61621 15.52V5.7C1.61621 3.436 2.98821 1.604 4.68021 1.604H13.8082C14.8242 1.604 15.7722 2.276 16.3402 3.396L23.6882 17.824C24.2602 18.944 25.2642 20 26.2802 20H35.3842C37.0762 20 38.3882 21.836 38.3882 24.096V34.296C38.3882 36.56 37.0162 38.392 35.3242 38.392H26.2002C25.1602 38.392 24.1922 37.688 23.6282 36.524L16.3362 21.484C15.7722 20.32 14.8602 20 13.8242 20H4.74021C3.04821 20 1.61621 17.78 1.61621 15.52Z" fill="#180D7D"/>
<path opacity="0.25" d="M38.3921 15.52V5.32C38.3921 3.056 36.1241 1.604 34.4321 1.604H26.2001C25.1841 1.604 24.2361 2.276 23.6681 3.396L16.3201 17.824C15.7481 18.944 14.8001 20 13.7881 20H4.68412C2.99212 20 1.62012 21.452 1.62012 23.716V34.3C1.62012 36.564 2.99212 38.396 4.68412 38.396H13.8081C14.8481 38.396 15.8161 37.692 16.3801 36.528L23.6761 21.484C24.2361 20.32 25.2041 20 26.2441 20H35.3281C37.0201 20 38.3921 17.78 38.3921 15.52Z" fill="#180D7D"/>
</svg>
