<svg width="57" height="57" viewBox="0 0 57 57" fill="none" xmlns="http://www.w3.org/2000/svg">
<path d="M28.1882 56.3763C43.7561 56.3763 56.3763 43.7561 56.3763 28.1882C56.3763 12.6203 43.7561 0 28.1882 0C12.6203 0 0 12.6203 0 28.1882C0 43.7561 12.6203 56.3763 28.1882 56.3763Z" fill="white"/>
<path d="M28.1881 32.1539C25.1619 32.1539 22.6987 29.692 22.6987 26.6645V20.9418C22.6987 17.9156 25.1606 15.4525 28.1881 15.4525C31.2156 15.4525 33.6775 17.9143 33.6775 20.9418V26.6645C33.6775 29.6908 31.2156 32.1539 28.1881 32.1539ZM28.1881 16.8295C25.9206 16.8295 24.0758 18.6744 24.0758 20.9418V26.6645C24.0758 28.932 25.9206 30.7769 28.1881 30.7769C30.4556 30.7769 32.3005 28.932 32.3005 26.6645V20.9418C32.3005 18.6744 30.4556 16.8295 28.1881 16.8295Z" fill="black"/>
<path d="M35.6919 23.1984C35.2455 23.1984 34.8843 23.5596 34.8843 24.006V26.8404C34.8843 30.5326 31.8806 33.535 28.1884 33.535C24.4962 33.535 21.4938 30.5314 21.4938 26.8404V24.006C21.4938 23.5596 21.1326 23.1984 20.6861 23.1984C20.2396 23.1984 19.8784 23.5596 19.8784 24.006V26.8404C19.8784 31.1509 23.1768 34.7039 27.382 35.1115V39.3041H24.737C24.2905 39.3041 23.9293 39.6653 23.9293 40.1118C23.9293 40.5582 24.2905 40.9194 24.737 40.9194H31.6448C32.0913 40.9194 32.4525 40.5582 32.4525 40.1118C32.4525 39.6653 32.0913 39.3041 31.6448 39.3041H28.9998V35.1115C33.205 34.7039 36.5034 31.1496 36.5034 26.8404V24.006C36.5034 23.5596 36.1422 23.1984 35.6957 23.1984H35.6919Z" fill="black"/>
<path d="M42.2842 15.5061L15.5054 42.2849" stroke="black" stroke-width="3" stroke-linecap="round"/>
</svg>
