<svg width="57" height="58" viewBox="0 0 57 58" fill="none" xmlns="http://www.w3.org/2000/svg">
<path d="M28.1882 57.1884C43.7561 57.1884 56.3763 44.5681 56.3763 29.0002C56.3763 13.4323 43.7561 0.812012 28.1882 0.812012C12.6203 0.812012 0 13.4323 0 29.0002C0 44.5681 12.6203 57.1884 28.1882 57.1884Z" fill="black"/>
<path d="M28.1881 32.9659C25.1619 32.9659 22.6987 30.504 22.6987 27.4765V21.7538C22.6987 18.7275 25.1606 16.2644 28.1881 16.2644C31.2156 16.2644 33.6775 18.7263 33.6775 21.7538V27.4765C33.6775 30.5027 31.2156 32.9659 28.1881 32.9659V32.9659ZM28.1881 17.6415C25.9206 17.6415 24.0758 19.4863 24.0758 21.7538V27.4765C24.0758 29.744 25.9206 31.5888 28.1881 31.5888C30.4556 31.5888 32.3005 29.744 32.3005 27.4765V21.7538C32.3005 19.4863 30.4556 17.6415 28.1881 17.6415V17.6415Z" fill="white"/>
<path d="M35.6919 24.0103C35.2455 24.0103 34.8843 24.3715 34.8843 24.818V27.6524C34.8843 31.3446 31.8806 34.347 28.1884 34.347C24.4962 34.347 21.4938 31.3433 21.4938 27.6524V24.818C21.4938 24.3715 21.1326 24.0103 20.6861 24.0103C20.2396 24.0103 19.8784 24.3715 19.8784 24.818V27.6524C19.8784 31.9629 23.1768 35.5158 27.382 35.9234V40.1161H24.737C24.2905 40.1161 23.9293 40.4772 23.9293 40.9237C23.9293 41.3702 24.2905 41.7314 24.737 41.7314H31.6448C32.0913 41.7314 32.4525 41.3702 32.4525 40.9237C32.4525 40.4772 32.0913 40.1161 31.6448 40.1161H28.9998V35.9234C33.205 35.5158 36.5034 31.9616 36.5034 27.6524V24.818C36.5034 24.3715 36.1422 24.0103 35.6957 24.0103H35.6919Z" fill="white"/>
</svg>
